<svg width="54" height="72" xmlns="http://www.w3.org/2000/svg"><path d="M.546 59.648l11.957 12a1.193 1.193 0 001.69 0l4.783-4.8a1.203 1.203 0 000-1.696l-.35-.352 3.588-3.588H37.26c.317 0 .621-.127.845-.352l15.544-15.6a1.203 1.203 0 000-1.696 7.944 7.944 0 00-5.628-2.34 7.944 7.944 0 00-5.628 2.34l-4.432 4.448h-4.288v-3.588a3.611 3.611 0 00-3.597-3.613L16.881 40.8c-.32.001-.625.131-.849.36l-7.12 7.208c-.22.224-.345.526-.347.84v3.112L7.37 53.512l-.353-.36a1.193 1.193 0 00-1.69 0l-4.783 4.8a1.203 1.203 0 00.002 1.696zm10.052-5.984c.228-.224.357-.53.359-.85v-3.108l6.421-6.506 12.697.01a1.213 1.213 0 011.208 1.214v3.59h-9.566v2.4h16.74c.317 0 .62-.127.845-.352l4.782-4.8a5.559 5.559 0 016.935-.759l-14.253 14.31H21.717c-.316 0-.62.126-.844.35l-3.938 3.941L9.063 55.2l1.535-1.536zm-4.424 2.033L16.44 66l-3.092 3.103-6.68-6.703 1.547-1.552-1.69-1.696-1.547 1.551L3.082 58.8l3.092-3.103zM37.276 19.2c5.931-.009 10.737-4.832 10.746-10.784V3.6c0-.663-.536-1.2-1.196-1.2h-4.798c-5.931.009-10.737 4.832-10.745 10.784v4.32l-2.392 2.4-2.391-2.4V11.88C26.493 5.322 21.198.007 14.663 0H8.565C7.905 0 7.37.537 7.37 1.2v6.12c.006 6.558 5.302 11.873 11.837 11.88h5.604l2.885 2.897v6.786a11.901 11.901 0 00-9.432 6.414l2.124 1.101a9.553 9.553 0 0110.76-4.933c4.29 1.046 7.311 4.903 7.309 9.335h2.39c-.006-6.16-4.654-11.316-10.76-11.939v-6.764l2.886-2.897h4.303zm-3.602-6.016c.008-4.627 3.744-8.375 8.354-8.384h3.602v3.616c-.008 4.627-3.743 8.375-8.354 8.384h-3.602v-3.616zM24.109 16.8h-4.902c-5.215-.005-9.44-4.247-9.446-9.48V2.4h4.902c5.215.005 9.44 4.247 9.446 9.48v4.92z" fill="#E5006E"/></svg>