<svg width="64" height="65" xmlns="http://www.w3.org/2000/svg"><g fill="#E5006E"><path d="M25.2 7.6c-9.7 0-17.6 7.9-17.6 17.6 0 9.7 7.9 17.6 17.6 17.6 9.7 0 17.6-7.9 17.6-17.6 0-9.7-7.9-17.6-17.6-17.6zm0 2c8.6 0 15.6 7 15.6 15.6 0 3.8-1.4 7.3-3.7 10.1-2.5-4.1-7-6.8-11.9-6.8s-9.4 2.6-11.9 6.8c-2.3-2.7-3.7-6.2-3.7-10.1 0-8.6 7-15.6 15.6-15.6zM14.7 36.7c2.1-3.8 6.1-6.2 10.4-6.2 4.4 0 8.4 2.4 10.4 6.2-2.8 2.5-6.4 4-10.4 4s-7.6-1.5-10.4-4z"/><path d="M25.2 24.8c3 0 5.5-2.4 5.5-5.5 0-3-2.4-5.5-5.5-5.5-3 0-5.5 2.4-5.5 5.5s2.5 5.5 5.5 5.5zm0-8.9c1.9 0 3.5 1.5 3.5 3.5 0 1.9-1.5 3.5-3.5 3.5-1.9 0-3.5-1.5-3.5-3.5 0-1.9 1.6-3.5 3.5-3.5z"/><path d="M62.2 53.7L51 42.5c-.4-.4-1-.4-1.4 0l-.9.9-3.3-3.4c3.1-4.2 4.9-9.3 4.9-14.9C50.3 11.3 39 0 25.2 0 11.3 0 0 11.3 0 25.2c0 13.9 11.3 25.2 25.2 25.2 5.6 0 10.7-1.8 14.9-4.9l3.3 3.3-.9.9c-.4.4-.4 1 0 1.4l11.2 11.2c2.4 2.4 6.2 2.4 8.5 0 2.4-2.4 2.4-6.2 0-8.6zM2 25.2C2 12.4 12.4 2 25.2 2 38 2 48.4 12.4 48.4 25.2c0 12.8-10.5 23.1-23.2 23.1C12.4 48.3 2 37.9 2 25.2zm39.6 19c.9-.8 1.8-1.7 2.6-2.6l3.1 3.1-2.6 2.6-3.1-3.1zm19.2 16.6c-1.5 1.5-4.2 1.5-5.7 0L44.6 50.3l5.7-5.7 10.5 10.5c1.6 1.6 1.6 4.1 0 5.7z"/></g></svg>