<svg width="60" height="63" xmlns="http://www.w3.org/2000/svg"><path d="M46.28 18.068c0 4.513-1.587 8.378-4.76 11.594-3.173 3.243-7.013 4.865-11.52 4.865-4.48 0-8.32-1.622-11.52-4.865-3.173-3.216-4.76-7.08-4.76-11.594 0-4.568 1.587-8.46 4.76-11.676 3.2-3.216 7.04-4.824 11.52-4.824 4.507 0 8.347 1.608 11.52 4.824 3.173 3.216 4.76 7.108 4.76 11.676zM2.08 60.959c.88-6 3.507-11.256 7.88-15.77 5.52-5.675 12.187-8.513 20-8.513 7.813 0 14.48 2.838 20 8.513 4.4 4.514 7.053 9.77 7.96 15.77H2.08z" stroke="#E5006E" stroke-width="2.3" fill="none" stroke-linecap="round" stroke-linejoin="round"/></svg>