<?xml version="1.0" encoding="UTF-8"?>
<svg width="48px" height="76px" viewBox="0 0 48 76" version="1.1" xmlns="http://www.w3.org/2000/svg" xmlns:xlink="http://www.w3.org/1999/xlink">
    <!-- Generator: sketchtool 52 (66869) - http://www.bohemiancoding.com/sketch -->
    <title>F61BCE1E-2DE8-461C-A58B-B7287AB149ED@2x</title>
    <desc>Created with sketchtool.</desc>
    <g id="Page-1" stroke="none" stroke-width="1" fill="none" fill-rule="evenodd">
        <g id="HP-DECAL-Copy-2" transform="translate(-1335.000000, -3766.000000)" fill="#000000">
            <g id="Group-21" transform="translate(-35.000000, 3545.000000)">
                <g id="Group-19" transform="translate(0.000000, 221.000000)">
                    <path d="M1431.56607,37.9999159 C1431.56607,37.4258962 1431.21153,36.6637202 1430.85181,36.293857 L1410.58549,15.2080353 C1409.63929,14.2501369 1408.10636,14.1391283 1407.00322,15.1112904 C1406.01699,15.980382 1405.99242,17.6754021 1406.90442,18.6191609 L1423.17288,35.5187816 L1358.09954,35.5187816 C1356.70038,35.5187816 1355.5662,36.6293633 1355.5662,37.9994198 C1355.5662,39.3694763 1356.70038,40.480182 1358.09954,40.480182 L1423.17288,40.480182 L1406.90442,57.3797779 C1405.99255,58.3234127 1406.05727,59.976758 1407.00322,60.8875244 C1408.00199,61.8490197 1409.65373,61.7634377 1410.58549,60.7907795 L1430.85181,39.7051066 C1431.44727,39.1331955 1431.55607,38.5823698 1431.56607,37.9999159 Z" id="Path-Copy-3" transform="translate(1393.566135, 37.999934) scale(1, -1) rotate(90.000000) translate(-1393.566135, -37.999934) "></path>
                </g>
            </g>
        </g>
    </g>
</svg>