<?xml version="1.0" encoding="UTF-8"?>
<svg width="54px" height="72px" viewBox="0 0 54 72" version="1.1" xmlns="http://www.w3.org/2000/svg" xmlns:xlink="http://www.w3.org/1999/xlink">
    <!-- Generator: sketchtool 52 (66869) - http://www.bohemiancoding.com/sketch -->
    <title>3B26886C-BF16-4A18-841C-185F7B6CA2D3@2x</title>
    <desc>Created with sketchtool.</desc>
    <g id="Page-1" stroke="none" stroke-width="1" fill="none" fill-rule="evenodd">
        <g id="HP-DECAL-Copy-2" transform="translate(-1034.000000, -3230.000000)" fill="#E5006E" fill-rule="nonzero">
            <g id="Group-25" transform="translate(0.000000, 2558.000000)">
                <g id="Group-22" transform="translate(306.000000, 672.000000)">
                    <g id="Group-41" transform="translate(720.000000, 0.000000)">
                        <g id="Group" transform="translate(8.000000, 0.000000)">
                            <path d="M0.545978261,59.6484 L12.5025,71.6484 C12.969402,72.1168583 13.7262502,72.1168583 14.1931522,71.6484 L18.9757609,66.8484 C19.4425219,66.3798002 19.4425219,65.6201998 18.9757609,65.1516 L18.6266304,64.8 L22.213587,61.212 L37.2608696,61.212 C37.5779503,61.211932 37.8820196,61.0854592 38.1061957,60.8604 L53.6496739,45.2604 C54.1164349,44.7918002 54.1164349,44.0321998 53.6496739,43.5636 C52.1571622,42.0653444 50.1326925,41.2236065 48.0217391,41.2236065 C45.9107857,41.2236065 43.8863161,42.0653444 42.3938043,43.5636 L37.9615217,48.012 L33.673913,48.012 L33.673913,44.424 C33.6712838,42.4309835 32.0631832,40.8154255 30.0773913,40.8108 L16.8809783,40.8 C16.5614451,40.8013313 16.2557376,40.9309732 16.0320652,41.16 L8.91195652,48.3684 C8.69106676,48.5919128 8.56653813,48.8935921 8.56521739,49.2084 L8.56521739,52.32 L7.36956522,53.5116 L7.01684783,53.1516 C6.54994583,52.6831417 5.79309765,52.6831417 5.32619565,53.1516 L0.543586957,57.9516 C0.0774856816,58.4208621 0.078556189,59.1804631 0.545978261,59.6484 Z M10.5978261,53.664 C10.825729,53.4398064 10.9548764,53.1334783 10.9565217,52.8132 L10.9565217,49.7064 L17.3783696,43.2 L30.075,43.2108 C30.7415915,43.21278 31.2812955,43.7549829 31.2826087,44.424 L31.2826087,48.0132 L21.7173913,48.0132 L21.7173913,50.4132 L38.4565217,50.4132 C38.7736025,50.413132 39.0776717,50.2866592 39.3018478,50.0616 L44.0844565,45.2616 C45.9333144,43.40895 48.8162043,43.0936721 51.0192391,44.5032 L36.7658696,58.8132 L21.7173913,58.8132 C21.4008963,58.8132675 21.0973393,58.9392745 20.8732609,59.1636 L16.9347826,63.1044 L9.0626087,55.2 L10.5978261,53.664 Z M6.17391304,55.6968 L16.4397826,66 L13.3478261,69.1032 L6.66891304,62.4 L8.2148913,60.8484 L6.52423913,59.1516 L4.97826087,60.7032 L3.08195652,58.8 L6.17391304,55.6968 Z" id="Shape"></path>
                            <path d="M37.276413,19.2 C43.2073432,19.1914081 48.0131784,14.3680972 48.0217391,8.4156 L48.0217391,3.6 C48.0217391,2.9372583 47.4864274,2.4 46.826087,2.4 L42.0279348,2.4 C36.0970046,2.40859186 31.2911694,7.23190284 31.2826087,13.1844 L31.2826087,17.5044 L28.8913043,19.9044 L26.5,17.5044 L26.5,11.88 C26.4934093,5.321599 21.1976822,0.00661463036 14.6630435,0 L8.56521739,0 C7.90487693,-2.66453526e-16 7.36956522,0.5372583 7.36956522,1.2 L7.36956522,7.32 C7.37615588,13.878401 12.6718831,19.1933854 19.2065217,19.2 L24.8105435,19.2 L27.6956522,22.0968 L27.6956522,28.8828 C23.6702692,29.2737132 20.1181256,31.6894394 18.2643478,35.2968 L20.3878261,36.3984 C22.4098387,32.4585022 26.8562994,30.4198326 31.1474769,31.4651791 C35.4386544,32.5105255 38.4591409,36.3681706 38.4565217,40.8 L40.8478261,40.8 C40.8406394,34.6402486 36.1929613,29.4838159 30.0869565,28.8612 L30.0869565,22.0968 L32.9732609,19.2 L37.276413,19.2 Z M33.673913,13.1844 C33.682467,8.55738447 37.4176838,4.80858508 42.0279348,4.8 L45.6304348,4.8 L45.6304348,8.4156 C45.6218808,13.0426155 41.886664,16.7914149 37.276413,16.8 L33.673913,16.8 L33.673913,13.1844 Z M24.1086957,16.8 L19.2065217,16.8 C13.9920176,16.7947083 9.76614207,12.553466 9.76086957,7.32 L9.76086957,2.4 L14.6630435,2.4 C19.8775476,2.40529168 24.1034231,6.64653402 24.1086957,11.88 L24.1086957,16.8 Z" id="Shape"></path>
                        </g>
                    </g>
                </g>
            </g>
        </g>
    </g>
</svg>