<?xml version="1.0" encoding="UTF-8"?>
<svg width="26px" height="17px" viewBox="0 0 26 17" version="1.1" xmlns="http://www.w3.org/2000/svg" xmlns:xlink="http://www.w3.org/1999/xlink">
    <!-- Generator: sketchtool 52 (66869) - http://www.bohemiancoding.com/sketch -->
    <title>ECC2AF9C-2CD2-40AF-BBE9-08D8B2704960@2x</title>
    <desc>Created with sketchtool.</desc>
    <g id="Page-1" stroke="none" stroke-width="1" fill="none" fill-rule="evenodd">
        <g id="HP-DECAL-Copy-2" transform="translate(-1048.000000, -985.000000)" fill="#E5006E">
            <g id="Group-12" transform="translate(981.000000, 981.000000)">
                <path d="M92.999867,12.0620658 C92.999867,11.8656913 92.8785772,11.6049477 92.7555151,11.478416 L85.8223241,4.26486969 C85.4986247,3.93716869 84.9742056,3.89919221 84.5968163,4.23177286 C84.2594236,4.52909267 84.2510169,5.10896601 84.5630164,5.43182978 L90.1285231,11.2132595 L67.8666651,11.2132595 C67.388006,11.2132595 67,11.5931941 67,12.061896 C67,12.530598 67.388006,12.910575 67.8666651,12.910575 L90.1285231,12.910575 L84.5630164,18.6919962 C84.2510603,19.0148176 84.2732036,19.5804338 84.5968163,19.8920107 C84.938499,20.2209422 85.5035647,20.1916643 85.8223241,19.8589139 L92.7555151,12.6454185 C92.9592247,12.4497654 92.996448,12.2613256 92.999867,12.0620658 Z" id="Path-Copy-7"></path>
            </g>
        </g>
    </g>
</svg>