<?xml version="1.0" encoding="UTF-8"?>
<svg width="64px" height="65px" viewBox="0 0 64 65" version="1.1" xmlns="http://www.w3.org/2000/svg" xmlns:xlink="http://www.w3.org/1999/xlink">
    <!-- Generator: sketchtool 52 (66869) - http://www.bohemiancoding.com/sketch -->
    <title>A3E12903-CA40-4553-8219-88FB6CACE994@2x</title>
    <desc>Created with sketchtool.</desc>
    <g id="Page-1" stroke="none" stroke-width="1" fill="none" fill-rule="evenodd">
        <g id="HP-DECAL-Copy-2" transform="translate(-665.000000, -3234.000000)" fill="#E5006E" fill-rule="nonzero">
            <g id="Group-25" transform="translate(0.000000, 2558.000000)">
                <g id="Group-22" transform="translate(306.000000, 672.000000)">
                    <g id="Group-39" transform="translate(0.000000, 4.000000)">
                        <g id="Group" transform="translate(359.000000, 0.000000)">
                            <path d="M25.2,7.6 C15.5,7.6 7.6,15.5 7.6,25.2 C7.6,34.9 15.5,42.8 25.2,42.8 C34.9,42.8 42.8,34.9 42.8,25.2 C42.8,15.5 34.9,7.6 25.2,7.6 Z M25.2,9.6 C33.8,9.6 40.8,16.6 40.8,25.2 C40.8,29 39.4,32.5 37.1,35.3 C34.6,31.2 30.1,28.5 25.2,28.5 C20.3,28.5 15.8,31.1 13.3,35.3 C11,32.6 9.6,29.1 9.6,25.2 C9.6,16.6 16.6,9.6 25.2,9.6 Z M14.7,36.7 C16.8,32.9 20.8,30.5 25.1,30.5 C29.5,30.5 33.5,32.9 35.5,36.7 C32.7,39.2 29.1,40.7 25.1,40.7 C21.1,40.7 17.5,39.2 14.7,36.7 Z" id="Shape"></path>
                            <path d="M25.2,24.8 C28.2,24.8 30.7,22.4 30.7,19.3 C30.7,16.3 28.3,13.8 25.2,13.8 C22.2,13.8 19.7,16.2 19.7,19.3 C19.7,22.4 22.2,24.8 25.2,24.8 Z M25.2,15.9 C27.1,15.9 28.7,17.4 28.7,19.4 C28.7,21.3 27.2,22.9 25.2,22.9 C23.3,22.9 21.7,21.4 21.7,19.4 C21.7,17.5 23.3,15.9 25.2,15.9 Z" id="Shape"></path>
                            <path d="M62.2,53.7 L51,42.5 C50.6,42.1 50,42.1 49.6,42.5 L48.7,43.4 L45.4,40 C48.5,35.8 50.3,30.7 50.3,25.1 C50.3,11.3 39,0 25.2,0 C11.3,0 0,11.3 0,25.2 C0,39.1 11.3,50.4 25.2,50.4 C30.8,50.4 35.9,48.6 40.1,45.5 L43.4,48.8 L42.5,49.7 C42.1,50.1 42.1,50.7 42.5,51.1 L53.7,62.3 C56.1,64.7 59.9,64.7 62.2,62.3 C64.6,59.9 64.6,56.1 62.2,53.7 Z M2,25.2 C2,12.4 12.4,2 25.2,2 C38,2 48.4,12.4 48.4,25.2 C48.4,38 37.9,48.3 25.2,48.3 C12.4,48.3 2,37.9 2,25.2 Z M41.6,44.2 C42.5,43.4 43.4,42.5 44.2,41.6 L47.3,44.7 L44.7,47.3 L41.6,44.2 Z M60.8,60.8 C59.3,62.3 56.6,62.3 55.1,60.8 L44.6,50.3 L50.3,44.6 L60.8,55.1 C62.4,56.7 62.4,59.2 60.8,60.8 Z" id="Shape"></path>
                        </g>
                    </g>
                </g>
            </g>
        </g>
    </g>
</svg>