<?xml version="1.0" encoding="UTF-8"?>
<svg width="60px" height="63px" viewBox="0 0 60 63" version="1.1" xmlns="http://www.w3.org/2000/svg" xmlns:xlink="http://www.w3.org/1999/xlink">
    <!-- Generator: sketchtool 52 (66869) - http://www.bohemiancoding.com/sketch -->
    <title>F9DAD052-0390-4952-AA8F-DE7A086EFEF4@2x</title>
    <desc>Created with sketchtool.</desc>
    <g id="Page-1" stroke="none" stroke-width="1" fill="none" fill-rule="evenodd" stroke-linecap="round" stroke-linejoin="round">
        <g id="HP-DECAL-Copy-2" transform="translate(-309.000000, -3240.000000)" stroke="#E5006E" stroke-width="2.30000004">
            <g id="Group-25" transform="translate(0.000000, 2558.000000)">
                <g id="Group-22" transform="translate(306.000000, 672.000000)">
                    <g id="Group-39" transform="translate(0.000000, 4.000000)">
                        <g id="Group" transform="translate(5.000000, 7.000000)">
                            <g id="a-link">
                                <path d="M44.28,17.0675676 C44.28,21.5810811 42.6933333,25.4459459 39.52,28.6621622 C36.3466667,31.9054054 32.5066667,33.527027 28,33.527027 C23.52,33.527027 19.68,31.9054054 16.48,28.6621622 C13.3066667,25.4459459 11.72,21.5810811 11.72,17.0675676 C11.72,12.5 13.3066667,8.60810811 16.48,5.39189189 C19.68,2.17567568 23.52,0.567567568 28,0.567567568 C32.5066667,0.567567568 36.3466667,2.17567568 39.52,5.39189189 C42.6933333,8.60810811 44.28,12.5 44.28,17.0675676 Z M0.08,59.9594595 C0.96,53.9594595 3.58666667,48.7027027 7.96,44.1891892 C13.48,38.5135135 20.1466667,35.6756757 27.96,35.6756757 C35.7733333,35.6756757 42.44,38.5135135 47.96,44.1891892 C52.36,48.7027027 55.0133333,53.9594595 55.92,59.9594595 L0.08,59.9594595 Z" id="a"></path>
                            </g>
                        </g>
                    </g>
                </g>
            </g>
        </g>
    </g>
</svg>